<svg xmlns="http://www.w3.org/2000/svg" width="167" height="175" viewBox="0 0 167 175" fill="none">
  <g filter="url(#filter0_d_173_1363)">
    <path d="M54.6221 94.6981C53.939 94.7005 53.2692 94.5095 52.6907 94.1474C52.1121 93.7853 51.6485 93.267 51.3536 92.6526C51.0588 92.0383 50.9448 91.3531 51.0249 90.6767C51.1051 90.0004 51.3761 89.3606 51.8065 88.8317L87.5429 52.1212C87.811 51.8127 88.1763 51.6042 88.5788 51.53C88.9814 51.4558 89.3973 51.5202 89.7583 51.7127C90.1193 51.9053 90.4039 52.2144 90.5655 52.5895C90.727 52.9645 90.7559 53.3832 90.6473 53.7768L83.7166 75.4431C83.5122 75.9885 83.4436 76.5751 83.5166 77.1527C83.5896 77.7303 83.802 78.2817 84.1356 78.7594C84.4693 79.2372 84.9142 79.6271 85.4322 79.8958C85.9502 80.1644 86.5259 80.3038 87.1097 80.3019H112.378C113.061 80.2996 113.731 80.4905 114.309 80.8526C114.888 81.2147 115.352 81.733 115.646 82.3474C115.941 82.9617 116.055 83.6469 115.975 84.3233C115.895 84.9996 115.624 85.6394 115.194 86.1684L79.4571 122.879C79.189 123.187 78.8237 123.396 78.4212 123.47C78.0186 123.544 77.6027 123.48 77.2417 123.287C76.8807 123.095 76.5961 122.786 76.4345 122.411C76.273 122.035 76.2441 121.617 76.3527 121.223L83.2834 99.5569C83.4878 99.0115 83.5564 98.4249 83.4834 97.8473C83.4104 97.2697 83.198 96.7184 82.8644 96.2406C82.5307 95.7628 82.0858 95.3729 81.5678 95.1042C81.0498 94.8356 80.4741 94.6962 79.8903 94.6981H54.6221Z" stroke="white" stroke-width="2" stroke-linecap="round" stroke-linejoin="round" shape-rendering="crispEdges"/>
  </g>
  <defs>
    <filter id="filter0_d_173_1363" x="0" y="0.5" width="167" height="174" filterUnits="userSpaceOnUse" color-interpolation-filters="sRGB">
      <feFlood flood-opacity="0" result="BackgroundImageFix"/>
      <feColorMatrix in="SourceAlpha" type="matrix" values="0 0 0 0 0 0 0 0 0 0 0 0 0 0 0 0 0 0 127 0" result="hardAlpha"/>
      <feOffset/>
      <feGaussianBlur stdDeviation="25"/>
      <feComposite in2="hardAlpha" operator="out"/>
      <feColorMatrix type="matrix" values="0 0 0 0 1 0 0 0 0 1 0 0 0 0 0 0 0 0 1 0"/>
      <feBlend mode="normal" in2="BackgroundImageFix" result="effect1_dropShadow_173_1363"/>
      <feBlend mode="normal" in="SourceGraphic" in2="effect1_dropShadow_173_1363" result="shape"/>
    </filter>
  </defs>
</svg>