<svg xmlns="http://www.w3.org/2000/svg" width="40" height="41" viewBox="0 0 40 41" fill="none">
  <g clip-path="url(#clip0_103_588)">
    <path d="M8.76 0.0683594H31.24C36.0781 0.0683594 40 3.99023 40 8.82836V31.3084C40 36.1465 36.0781 40.0684 31.24 40.0684H8.76C3.92187 40.0684 0 36.1465 0 31.3084V8.82836C0 3.99023 3.92187 0.0683594 8.76 0.0683594Z" fill="url(#paint0_linear_103_588)"/>
    <path d="M12.819 29.1009L12.8228 29.1022L11.4551 31.4709C10.9559 32.3356 9.85029 32.6319 8.98561 32.1327C8.12092 31.6334 7.82467 30.5278 8.32389 29.6631L9.33139 27.9181L9.42811 27.7506C9.60076 27.5025 10.0269 27.0741 10.8792 27.1547C10.8792 27.1547 12.885 27.3723 13.0301 28.4148C13.0301 28.4148 13.0498 28.7578 12.819 29.1009ZM32.2164 23.0509H27.9517C27.6612 23.0314 27.5345 22.9277 27.4845 22.8673L27.4814 22.8619L22.9162 14.9547L22.9103 14.9586L22.6365 14.5661C22.1878 13.8798 21.4753 15.6348 21.4753 15.6348C20.6245 17.5905 21.5961 19.8137 21.9347 20.4858L28.2756 31.4686C28.7747 32.3331 29.8803 32.6295 30.7451 32.1302C31.6097 31.6309 31.9061 30.5253 31.4067 29.6606L29.8212 26.9144C29.7904 26.8478 29.737 26.6672 30.0622 26.6664H32.2164C33.2148 26.6664 34.0242 25.857 34.0242 24.8586C34.0242 23.8602 33.2148 23.0509 32.2164 23.0509ZM23.9329 25.5083C23.9329 25.5083 24.1606 26.6662 23.2798 26.6662H7.51436C6.51592 26.6662 5.70654 25.8569 5.70654 24.8584C5.70654 23.86 6.51592 23.0506 7.51436 23.0506H11.5675C12.2219 23.0128 12.3769 22.635 12.3769 22.635L12.3806 22.6369L17.6712 13.4731C17.7676 13.2961 17.6858 13.1284 17.6719 13.102L15.9245 10.0756C15.4253 9.21109 15.7215 8.10531 16.5862 7.60625C17.4509 7.10718 18.5565 7.40312 19.0558 8.26781L19.8661 9.6714L20.675 8.27031C21.1742 7.40578 22.2798 7.10937 23.1445 7.60875C24.0092 8.10812 24.3054 9.21343 23.8062 10.0781L16.444 22.8297C16.4119 22.9073 16.402 23.0292 16.6415 23.0506H21.0422L21.0431 23.0936C21.0431 23.0936 23.5865 23.1331 23.9329 25.5083Z" fill="white"/>
  </g>
  <defs>
    <linearGradient id="paint0_linear_103_588" x1="2000" y1="0.0683594" x2="2000" y2="4000.07" gradientUnits="userSpaceOnUse">
      <stop stop-color="#17C9FB"/>
      <stop offset="1" stop-color="#1A74E8"/>
    </linearGradient>
    <clipPath id="clip0_103_588">
      <rect width="40" height="40" fill="white" transform="translate(0 0.0683594)"/>
    </clipPath>
  </defs>
</svg>