<svg width="30" height="31" viewBox="0 0 30 31" fill="none" xmlns="http://www.w3.org/2000/svg">
<path d="M25.3838 5.90012C23.4837 5.01438 21.4265 4.3715 19.2836 4.00007C19.2648 3.99946 19.2461 4.00299 19.2289 4.0104C19.2116 4.0178 19.1961 4.0289 19.1836 4.04292C18.9265 4.51437 18.6265 5.12867 18.4265 5.60011C16.1535 5.25724 13.842 5.25724 11.5691 5.60011C11.3691 5.11438 11.0691 4.51437 10.7977 4.04292C10.7834 4.01435 10.7405 4.00007 10.6977 4.00007C8.55475 4.3715 6.51184 5.01438 4.5975 5.90012C4.58322 5.90012 4.56893 5.9144 4.55465 5.92869C0.668824 11.7431 -0.402634 17.4004 0.125952 23.0006C0.125952 23.0292 0.140238 23.0577 0.16881 23.072C2.74031 24.9578 5.21181 26.1007 7.65473 26.8578C7.69759 26.8721 7.74045 26.8578 7.75473 26.8293C8.32618 26.0435 8.84048 25.2149 9.28335 24.3435C9.31192 24.2863 9.28335 24.2292 9.2262 24.2149C8.41189 23.9006 7.64044 23.5292 6.88328 23.1006C6.82614 23.072 6.82614 22.9863 6.86899 22.9434C7.02614 22.8292 7.18329 22.7006 7.34044 22.5863C7.36901 22.5577 7.41187 22.5577 7.44044 22.572C12.3549 24.8149 17.655 24.8149 22.5123 22.572C22.5409 22.5577 22.5837 22.5577 22.6123 22.5863C22.7694 22.7149 22.9266 22.8292 23.0837 22.9577C23.1409 23.0006 23.1409 23.0863 23.0694 23.1149C22.3266 23.5577 21.5408 23.9149 20.7265 24.2292C20.6694 24.2435 20.6551 24.3149 20.6694 24.3578C21.1265 25.2292 21.6408 26.0578 22.198 26.8435C22.2408 26.8578 22.2837 26.8721 22.3266 26.8578C24.7838 26.1007 27.2553 24.9578 29.8268 23.072C29.8553 23.0577 29.8696 23.0292 29.8696 23.0006C30.4982 16.529 28.8267 10.9145 25.4409 5.92869C25.4266 5.9144 25.4124 5.90012 25.3838 5.90012ZM10.0262 19.5862C8.55476 19.5862 7.32615 18.229 7.32615 16.5576C7.32615 14.8861 8.52618 13.5289 10.0262 13.5289C11.5406 13.5289 12.7406 14.9004 12.7263 16.5576C12.7263 18.229 11.5263 19.5862 10.0262 19.5862ZM19.9836 19.5862C18.5122 19.5862 17.2836 18.229 17.2836 16.5576C17.2836 14.8861 18.4836 13.5289 19.9836 13.5289C21.498 13.5289 22.698 14.9004 22.6837 16.5576C22.6837 18.229 21.498 19.5862 19.9836 19.5862Z" fill="white"/>
</svg>
