<svg xmlns="http://www.w3.org/2000/svg" width="40" height="45" viewBox="0 0 40 45" fill="none">
  <path d="M18.6802 21.0806L0.165649 40.4782C0.373566 41.215 0.747198 41.8946 1.25798 42.4649C1.76877 43.0352 2.40319 43.4811 3.11274 43.7687C3.82229 44.0562 4.58819 44.1777 5.3519 44.1239C6.1156 44.07 6.85688 43.8423 7.51909 43.4581L28.3514 31.5934L18.6802 21.0806Z" fill="#EA4335"/>
  <path d="M37.4016 17.7835L28.393 12.6235L18.2527 21.522L28.4342 31.5657L37.3742 26.461C38.1662 26.0463 38.8296 25.4228 39.2924 24.6579C39.7553 23.8931 40 23.0162 40 22.1222C40 21.2282 39.7553 20.3513 39.2924 19.5865C38.8296 18.8216 38.1662 18.1981 37.3742 17.7834L37.4016 17.7835Z" fill="#FBBC04"/>
  <path d="M0.165673 3.66992C0.0538285 4.08366 -0.00187885 4.51056 4.83382e-05 4.93914V39.209C0.00115273 39.6374 0.0568087 40.064 0.165673 40.4784L19.3149 21.5774L0.165673 3.66992Z" fill="#4285F4"/>
  <path d="M18.8181 22.0741L28.3928 12.6236L7.58815 0.703603C6.80538 0.245198 5.91511 0.00242588 5.00799 9.58286e-06C2.7569 -0.00436542 0.777837 1.4897 0.165649 3.6561L18.8181 22.0741Z" fill="#34A853"/>
</svg>