<svg width="30" height="31" viewBox="0 0 30 31" fill="none" xmlns="http://www.w3.org/2000/svg">
<path fill-rule="evenodd" clip-rule="evenodd" d="M24.5141 5.14128C24.8092 5.01618 25.1322 4.97304 25.4494 5.01634C25.7667 5.05963 26.0666 5.18779 26.318 5.38747C26.5694 5.58714 26.7631 5.85104 26.8789 6.15169C26.9946 6.45234 27.0283 6.77875 26.9763 7.09695L24.2681 23.6432C24.0054 25.2392 22.2668 26.1545 20.8136 25.3595C19.598 24.6944 17.7925 23.6696 16.1685 22.6004C15.3565 22.0652 12.8692 20.3512 13.1749 19.1317C13.4376 18.0889 17.617 14.1703 20.0052 11.8406C20.9425 10.9253 20.5151 10.3973 19.4081 11.2392C16.6593 13.3296 12.2459 16.5085 10.7867 17.4033C9.49946 18.1923 8.82837 18.327 8.02593 18.1923C6.56196 17.9469 5.20427 17.5669 4.09614 17.1038C2.59874 16.4784 2.67158 14.4049 4.09495 13.8011L24.5141 5.14128Z" fill="white"/>
</svg>
