<svg width="30" height="31" viewBox="0 0 30 31" fill="none" xmlns="http://www.w3.org/2000/svg">
<g clip-path="url(#clip0_2464_14134)">
<path fill-rule="evenodd" clip-rule="evenodd" d="M24.9999 2C27.7613 2 29.9999 4.23858 29.9999 7V20.25C29.9999 23.0114 27.7613 25.25 24.9999 25.25H22.5034C20.9877 25.25 19.5741 26.0136 18.7431 27.2812C16.9677 29.9894 12.9979 29.9894 11.2224 27.2812C10.3915 26.0136 8.97777 25.25 7.4621 25.25H4.99991C2.23849 25.25 -9.15527e-05 23.0114 -9.15527e-05 20.25V7C-9.15527e-05 4.23858 2.23848 2 4.99991 2H24.9999ZM20.9347 7.0703C20.7406 7.04356 20.5429 7.07021 20.3624 7.14747L7.86714 12.4957C6.99613 12.8686 6.95155 14.1492 7.86787 14.5355C8.54597 14.8215 9.3768 15.0562 10.2727 15.2077C10.7637 15.2909 11.1744 15.2077 11.9621 14.7204C12.855 14.1678 15.5557 12.2045 17.2378 10.9135C17.9152 10.3936 18.1768 10.7196 17.6032 11.2849C17.4043 11.4807 17.1852 11.6947 16.9545 11.9199C15.4901 13.3495 13.5624 15.2315 13.4235 15.7878C13.2364 16.5411 14.7585 17.5996 15.2554 17.9301C16.2492 18.5905 17.354 19.2234 18.0979 19.6341C18.9872 20.1251 20.0511 19.5598 20.2118 18.5741L21.8691 8.35528C21.9009 8.15876 21.8803 7.95717 21.8095 7.77149C21.7386 7.58581 21.6201 7.42283 21.4663 7.29951C21.3124 7.17619 21.1289 7.09704 20.9347 7.0703Z" fill="white"/>
</g>
<defs>
<clipPath id="clip0_2464_14134">
<rect width="30" height="30" fill="white" transform="translate(0 0.73526)"/>
</clipPath>
</defs>
</svg>
