<svg width="30" height="31" viewBox="0 0 30 31" fill="none" xmlns="http://www.w3.org/2000/svg">
<g clip-path="url(#clip0_2464_14142)">
<path d="M12.0001 20L19.7851 15.5L12.0001 11V20ZM29.3401 8.255C29.5351 8.96 29.6701 9.905 29.7601 11.105C29.8651 12.305 29.9101 13.34 29.9101 14.24L30.0001 15.5C30.0001 18.785 29.7601 21.2 29.3401 22.745C28.9651 24.095 28.0951 24.965 26.7451 25.34C26.0401 25.535 24.7501 25.67 22.7701 25.76C20.8201 25.865 19.0351 25.91 17.3851 25.91L15.0001 26C8.71512 26 4.80012 25.76 3.25512 25.34C1.90512 24.965 1.03512 24.095 0.660122 22.745C0.465122 22.04 0.330122 21.095 0.240122 19.895C0.135122 18.695 0.090122 17.66 0.090122 16.76L0.00012207 15.5C0.00012207 12.215 0.240122 9.8 0.660122 8.255C1.03512 6.905 1.90512 6.035 3.25512 5.66C3.96012 5.465 5.25012 5.33 7.23012 5.24C9.18012 5.135 10.9651 5.09 12.6151 5.09L15.0001 5C21.2851 5 25.2001 5.24 26.7451 5.66C28.0951 6.035 28.9651 6.905 29.3401 8.255Z" fill="white"/>
</g>
<defs>
<clipPath id="clip0_2464_14142">
<rect width="30" height="30" fill="white" transform="translate(0 0.73526)"/>
</clipPath>
</defs>
</svg>
